# xmcd CD database file
#
# Track frame offsets:
#	150
#	10425
#	21370
#	32405
#	44638
#	55338
#	67305
#	77115
#	86913
#	97513
#	108428
#	118738
#	127463
#
# Disc length: 1848 seconds
#
# Revision: 2
# Processed by: cddbd v1.4PL0 Copyright (c) Steve Scherf et al.
# Submitted via: CDex 1.50Beta3
#
DISCID=b807360d
DTITLE=Various Artist - 60s Bubblegum Hits
DYEAR=1900
DGENRE=
TTITLE0=1910 Fruitgum Company - Simon says
TTITLE1=Ohio Express - Mercy
TTITLE2=Lemon Pipers - Green tambourine
TTITLE3=1910 Fruitgum Company - Indian giver
TTITLE4=Kasenetz Katz Singing Circus/ Quick Joey Small (run joey run)
TTITLE5=Ohio Express - Chewy chewy
TTITLE6=Lemon Pipers - Rice is nice
TTITLE7=1910 Fruitgum Company - 1 2 3 Red light
TTITLE8=Ohio Express - Yummy yummy yummy
TTITLE9=Lemon Pipers - Jelly jungle
TTITLE10=1910 Fruitgum Company - Goody goody gumdrops
TTITLE11=Ohio Express - Down at Lulu's
TTITLE12=Lemon Pipers - Blueberry blue
EXTD=
EXTT0=
EXTT1=
EXTT2=
EXTT3=
EXTT4=
EXTT5=
EXTT6=
EXTT7=
EXTT8=
EXTT9=
EXTT10=
EXTT11=
EXTT12=
PLAYORDER=
